# xmcd
#
# Track frame offsets:
#	150
#	5469
#	21369
#	35406
#	51057
#	67884
#	90393
#	108415
#	122792
#	136261
#	149008
#	165307
#	180918
#	208774
#	221120
#
# Disc length: 3148 seconds
#
# Revision: 0
# Processed by: cddbd v1.5.1PL2 Copyright (c) Steve Scherf et al.
# Submitted via: dBpowerAMP V4.0
#
DISCID=cd0c4a0f
DTITLE=Big and Rich - Comin' to Your City
DYEAR=2005
DGENRE=Country
TTITLE0=The Freak Parade
TTITLE1=Comin' to Your City
TTITLE2=Soul Shaker
TTITLE3=Never Mind Me
TTITLE4=Caught Up In the Moment
TTITLE5=Leap of Faith
TTITLE6=I Pray for You
TTITLE7=Filthy Rich
TTITLE8=Jalapeno
TTITLE9=20 Margaritas
TTITLE10=Blow My Mind
TTITLE11=Slow Motion
TTITLE12=8th of November
TTITLE13=Our America (Bonus Track)
TTITLE14=I'm Only Here for the Beer (Digital Album Version)
EXTD=
EXTT0=
EXTT1=
EXTT2=
EXTT3=
EXTT4=
EXTT5=
EXTT6=
EXTT7=
EXTT8=
EXTT9=
EXTT10=
EXTT11=
EXTT12=
EXTT13=
EXTT14=
PLAYORDER=
